<?xml version="1.0" encoding="UTF-8"?>
<!DOCTYPE svg PUBLIC "-//W3C//DTD SVG 1.1//EN" "http://www.w3.org/Graphics/SVG/1.1/DTD/svg11.dtd">
<!-- Creator: CorelDRAW -->
<svg xmlns="http://www.w3.org/2000/svg" xml:space="preserve" width="210mm" height="297mm" version="1.1" style="shape-rendering:geometricPrecision; text-rendering:geometricPrecision; image-rendering:optimizeQuality; fill-rule:evenodd; clip-rule:evenodd"
viewBox="0 0 21000 29700"
 xmlns:xlink="http://www.w3.org/1999/xlink"
 xmlns:xodm="http://www.corel.com/coreldraw/odm/2003">
 <defs>
  <style type="text/css">
   <![CDATA[
    .fil1 {fill:none}
    .fil0 {fill:#373435}
   ]]>
  </style>
 </defs>
 <g id="圖層_x0020_1">
  <metadata id="CorelCorpID_0Corel-Layer"/>
  <g id="_2584604508640">
   <path class="fil0" d="M2139.39 6663.64c5419.66,-152.7 10820.26,-2703.04 16112.85,-3397.04 1483.1,-194.48 2094.3,957.77 1139.49,2024.98 -1191.24,1331.48 -1801.41,2075.35 -2847.23,3553.5 -943.26,1333.2 -1707.47,2432.02 -2406.15,3394.71 1833.67,1154.44 -305.71,3721.97 -1161.04,4991.18 -591.51,877.71 -1342.42,1845.39 -2171.64,2831.2 191.13,-78.92 357.67,-70.26 482.34,54.5 403.91,404.25 -128.66,1070.18 -1043.91,1834.79 -1140.26,1416.2 -2191.31,3282.75 408.74,3632.51 1229.63,165.41 4859.16,175.35 5761.86,-591.05 1029.34,-873.92 349.27,-2787 83.85,-3868.52 1675.17,3273.77 972.53,4858.29 -2848.18,5122.34 -1577.44,109.03 -5184.59,580.27 -5421.25,-1671.25 -35.63,-339.09 67.76,-802.83 257.14,-1305.29 -635.01,447.76 -1293.49,898.25 -1886.51,1325.34 -527.58,520.93 -1036.98,1007.01 -1510.28,1442.39 -358.76,330 -1255.95,1095.4 -1521.04,163.28 -153.77,-540.71 705.21,-1336.78 1867.65,-2181.57 1355.02,-1389.2 2736.08,-2955.23 3883.25,-4295.05 820.23,-957.99 3997.17,-5025.09 4064.53,-6190.06 -41.32,-29.17 -93.28,-55.2 -151.94,-78.45 -1726.3,2241.4 -3349.94,3852.69 -6873.67,6560.38 -978.4,751.84 -1612.23,1123.25 -2448.92,-295.37 -1477.73,-2505.46 -978.91,-5925.35 1878.37,-7312.47 1368.81,-664.51 4323.3,-951.16 6407.44,-715.73 929.31,-1281.98 1874.5,-2729.18 3174.99,-4609.16 387.95,-560.79 719.81,-999.13 1045.15,-1403.23 -4708.05,1044.65 -9197.78,3020.72 -14275.89,3221.48 -618.1,0 -1119.17,-501.08 -1119.17,-1119.17 0,-618.1 501.07,-1119.17 1119.17,-1119.17zm8918.27 6515.64c-1992.39,-72.05 -4576.79,188.83 -5655.02,1561.6 -742.37,945.16 -719.05,2847.12 -141.67,3898.98 165.55,-130.8 330.25,-261.63 557.17,-443.25 2472.07,-1978.72 3960.47,-3447.89 5239.52,-5017.33z"/>
  </g>
  <path class="fil1" d="M2139.39 7782.81c4401.78,0 10771.42,-2572.75 15996.97,-3466.22 1557.82,-266.37 268.69,178.21 -1485.99,2665.1 -5189,7354.25 -4962.44,7804.41 -11419.48,12795.63 -637.5,492.77 -4285.14,-7358.87 4774.53,-7358.87 5672.13,0 4679.96,913.98 1876.87,5181.57 -1611.47,2453.4 -8957.29,9978.94 -7575.3,8179.4 1170.3,-1523.88 6641.69,-4434.3 6641.71,-5323.7 -81.92,0 -5617.24,5675.46 717.16,5530.46 3622.55,-82.91 6924.26,178.62 4832.69,-4861.78"/>
 </g>
</svg>
